<svg width="40" height="40" viewBox="0 0 40 40" fill="none" xmlns="http://www.w3.org/2000/svg">
<path fill-rule="evenodd" clip-rule="evenodd" d="M28.75 20C28.75 24.8325 24.8325 28.75 20 28.75C18.4868 28.75 17.0634 28.3659 15.8218 27.6899L11.25 28.75L12.3865 24.3156C11.6631 23.0421 11.25 21.5693 11.25 20C11.25 15.1675 15.1675 11.25 20 11.25C24.8325 11.25 28.75 15.1675 28.75 20ZM17.0358 15.5561C17.3328 15.5535 17.6202 15.551 17.8125 15.9374C17.9789 16.2717 18.1836 16.8456 18.4252 17.5312L18.4283 17.5401C18.4847 17.7 18.5728 17.9496 18.457 18.1151C18.3391 18.2837 18.0762 18.6229 17.8858 18.8426C17.837 18.8989 17.7392 19.0277 17.8724 19.2376C17.9056 19.2898 17.9341 19.3433 17.9656 19.4022C18.0925 19.6395 18.2666 19.9652 18.9747 20.6516C19.6893 21.3444 20.5859 21.7432 20.9166 21.8758C21.0064 21.9268 21.2224 21.995 21.3672 21.8602C21.4338 21.7982 21.5593 21.638 21.6961 21.4632C21.8568 21.2579 22.0332 21.0326 22.1484 20.9227C22.1519 20.9196 22.1555 20.9163 22.1592 20.9129C22.2362 20.8423 22.3584 20.7303 22.583 20.8202C22.7797 20.8989 23.5342 21.262 24.1042 21.5363C24.2162 21.5902 24.3211 21.6407 24.4133 21.685C24.5039 21.7137 24.6354 21.8194 24.6354 22.0314C24.6354 22.5096 24.2969 23.9256 22.6514 23.9549C21.0059 23.9842 19.0238 23.1236 17.5153 21.46C15.9522 19.7362 15.4883 18.5839 15.4883 17.5312C15.4883 16.2467 16.3867 15.5565 16.9629 15.5565C16.9872 15.5565 17.0115 15.5563 17.0358 15.5561Z" fill="#6A6E6E"/>
<circle cx="20" cy="20" r="19.75" stroke="#6A6E6E" stroke-width="0.5"/>
</svg>
