<svg width="40" height="40" viewBox="0 0 40 40" fill="none" xmlns="http://www.w3.org/2000/svg">
<path fill-rule="evenodd" clip-rule="evenodd" d="M18.2611 27.6386C18.8035 27.6807 19.3825 27.7016 20 27.7016C26.9231 27.7016 29 25.0756 29 19.3508C29 13.626 26.9231 11 20 11C13.0769 11 11 13.626 11 19.3508C11 23.3973 12.0377 25.8955 15.0909 27.0126V29.6812C15.0909 29.9776 15.4711 30.113 15.668 29.8867L18.2611 27.6386ZM20.1613 14.3226C20.1613 14.1444 20.3057 14 20.4839 14C22.9781 14 25 16.0219 25 18.5161C25 18.6943 24.8556 18.8387 24.6774 18.8387C24.4993 18.8387 24.3548 18.6943 24.3548 18.5161C24.3548 16.3783 22.6217 14.6452 20.4839 14.6452C20.3057 14.6452 20.1613 14.5007 20.1613 14.3226ZM17.044 15.0828C16.8595 14.9108 16.5374 14.9584 16.3546 15.0524C15.7248 15.3761 15.4316 15.7221 15.171 16.0539C14.9104 16.3857 15.0045 16.8261 15.0842 17.0048C15.2941 17.7567 16.518 19.9879 17.9398 21.2737C20.1657 23.2868 22.6848 24 22.9454 24C23.6512 24 24.4384 23.0744 24.623 22.6546C24.7707 22.3187 24.5832 22.0628 24.471 21.9768C24.2864 21.8352 23.8705 21.5185 23.6838 21.385C23.4503 21.2181 22.9346 20.864 22.4839 20.7022C22.1235 20.5727 21.8343 20.7561 21.7347 20.864C21.6714 20.945 21.4969 21.1574 21.3058 21.3597C21.1191 21.5574 20.9026 21.5171 20.7573 21.4901C20.7167 21.4826 20.6816 21.4761 20.6544 21.4761C20.2255 21.38 19.5414 21.0765 18.8954 20.4999C18.2493 19.9233 17.8747 19.1494 17.701 18.7549C17.562 18.4392 17.7191 18.1917 17.815 18.1074C17.9181 18.0467 18.1733 17.8778 18.3687 17.6876C18.613 17.4499 18.5587 17.0554 18.5099 16.9441C18.461 16.8328 18.119 16.3321 17.8747 16.0033C17.6304 15.6745 17.2748 15.2977 17.044 15.0828ZM20.4839 16.5806C20.3057 16.5806 20.1613 16.7251 20.1613 16.9032C20.1613 17.0814 20.3057 17.2258 20.4839 17.2258C21.1965 17.2258 21.7742 17.8035 21.7742 18.5161C21.7742 18.6943 21.9186 18.8387 22.0968 18.8387C22.2749 18.8387 22.4194 18.6943 22.4194 18.5161C22.4194 17.4472 21.5528 16.5806 20.4839 16.5806ZM20.4839 15.2903C20.3057 15.2903 20.1613 15.4347 20.1613 15.6129C20.1613 15.7911 20.3057 15.9355 20.4839 15.9355C21.9091 15.9355 23.0645 17.0909 23.0645 18.5161C23.0645 18.6943 23.2089 18.8387 23.3871 18.8387C23.5653 18.8387 23.7097 18.6943 23.7097 18.5161C23.7097 16.7346 22.2654 15.2903 20.4839 15.2903Z" fill="#6A6E6E"/>
<circle cx="20" cy="20" r="19.75" stroke="#6A6E6E" stroke-width="0.5"/>
</svg>
