<svg width="40" height="40" viewBox="0 0 40 40" fill="none" xmlns="http://www.w3.org/2000/svg">
<path fill-rule="evenodd" clip-rule="evenodd" d="M20 28.125C24.4873 28.125 28.125 24.4873 28.125 20C28.125 15.5127 24.4873 11.875 20 11.875C15.5127 11.875 11.875 15.5127 11.875 20C11.875 24.4873 15.5127 28.125 20 28.125ZM23.267 15.9851C23.6826 15.8026 24.1271 16.1716 24.0547 16.639L22.9841 23.5554C22.919 23.9758 22.4714 24.195 22.1235 23.9768L19.0215 22.0315C18.6982 21.8288 18.6449 21.3593 18.9136 21.0822L21.6843 18.2256C21.7834 18.1234 21.6569 17.9584 21.5408 18.0386L17.6918 20.6978C17.4073 20.8943 17.0545 20.948 16.7286 20.8442L15.0214 20.3006C14.7123 20.2021 14.6905 19.7506 14.9885 19.6198L23.267 15.9851Z" fill="#6A6E6E"/>
<circle cx="20" cy="20" r="19.75" stroke="#6A6E6E" stroke-width="0.5"/>
</svg>
