<svg width="40" height="40" viewBox="0 0 40 40" fill="none" xmlns="http://www.w3.org/2000/svg">
<path fill-rule="evenodd" clip-rule="evenodd" d="M28.125 19.2922C28.125 23.8718 24.2914 27.5843 19.5625 27.5843C18.69 27.5843 17.8481 27.458 17.055 27.2231L15.1929 28.0473C14.5973 28.311 13.9293 27.8711 13.9293 27.2153V25.5372C12.134 24.0172 11 21.783 11 19.2922C11 14.7125 14.8336 11 19.5625 11C24.2914 11 28.125 14.7125 28.125 19.2922ZM15.0291 20.9252L17.5121 17.5294C17.7743 17.1709 18.2935 17.0932 18.6566 17.3581L20.5361 18.7291C20.7554 18.8891 21.0596 18.8861 21.2754 18.7218L23.5169 17.0154C23.882 16.7375 24.3644 17.1784 24.0944 17.5431L21.4903 21.0594C21.2271 21.415 20.7102 21.4909 20.3486 21.2271L18.463 19.8515C18.2447 19.6922 17.9422 19.6944 17.7264 19.8568L15.6062 21.4524C15.2417 21.7267 14.7629 21.2893 15.0291 20.9252Z" fill="#6A6E6E"/>
<circle cx="20" cy="20" r="19.75" stroke="#6A6E6E" stroke-width="0.5"/>
</svg>
